# xmcd
#
# Track frame offsets: 
#        150
#        17392
#        35811
#        53882
#        73244
#        92286
#        111560
#        132143
#        148850
#        167837
#        186484
#
# Disc length: 2685 seconds
#
# Revision: 0
# Processed by: cddbd v1.5.2PL0 Copyright (c) Steve Scherf et al.
# Submitted via: ExactAudioCopy v0.99pb1
#
DISCID=a10a7b0b
DTITLE=Rick Vito - Rattlesnake Shake
DYEAR=2005
DGENRE=Blues
TTITLE0=My Baby's Hot
TTITLE1=Rattlesnake Shake
TTITLE2=I Do Believe
TTITLE3=The Lucky Devil
TTITLE4=A Change Is Gonna Come
TTITLE5=The Glory Road
TTITLE6=Going To Las Vegas
TTITLE7=Slide The Blues
TTITLE8=I Am Not Alone
TTITLE9=Hole In My Shoe
TTITLE10=Albatross
EXTD=
EXTT0=
EXTT1=
EXTT2=
EXTT3=
EXTT4=
EXTT5=
EXTT6=
EXTT7=
EXTT8=
EXTT9=
EXTT10=
PLAYORDER=
